<mxfile host="app.diagrams.net" modified="2024-01-05T10:13:17.648Z" agent="Mozilla/5.0 (Windows NT 10.0; Win64; x64) AppleWebKit/537.36 (KHTML, like Gecko) Chrome/120.0.0.0 Safari/537.36 Edg/120.0.0.0" etag="geVT7fqog330oqmEjW3b" version="22.1.16" type="github">
  <diagram name="Page-1" id="N3_fSPIRsvPXqvqLCS4E">
    <mxGraphModel dx="1042" dy="569" grid="1" gridSize="10" guides="1" tooltips="1" connect="1" arrows="1" fold="1" page="1" pageScale="1" pageWidth="827" pageHeight="1169" math="0" shadow="0">
      <root>
        <mxCell id="0" />
        <mxCell id="1" parent="0" />
        <mxCell id="3X6H7SgbxtwTs5WAB30O-1" value="" style="rounded=0;whiteSpace=wrap;html=1;" vertex="1" parent="1">
          <mxGeometry x="260" y="270" width="210" height="60" as="geometry" />
        </mxCell>
        <mxCell id="3X6H7SgbxtwTs5WAB30O-2" value="HeaderIcon" style="text;html=1;strokeColor=none;fillColor=none;align=center;verticalAlign=middle;whiteSpace=wrap;rounded=0;" vertex="1" parent="1">
          <mxGeometry x="450" y="240" width="60" height="30" as="geometry" />
        </mxCell>
        <mxCell id="3X6H7SgbxtwTs5WAB30O-3" value="" style="html=1;verticalLabelPosition=bottom;align=center;labelBackgroundColor=#ffffff;verticalAlign=top;strokeWidth=2;strokeColor=#0080F0;shadow=0;dashed=0;shape=mxgraph.ios7.icons.home;" vertex="1" parent="1">
          <mxGeometry x="270" y="287.25" width="24" height="25.5" as="geometry" />
        </mxCell>
        <mxCell id="3X6H7SgbxtwTs5WAB30O-4" value="" style="rounded=1;whiteSpace=wrap;html=1;strokeWidth=2;fillWeight=4;hachureGap=8;hachureAngle=45;fillColor=#1ba1e2;sketch=1;" vertex="1" parent="1">
          <mxGeometry x="310" y="280" width="130" height="40" as="geometry" />
        </mxCell>
        <mxCell id="3X6H7SgbxtwTs5WAB30O-5" value="" style="endArrow=classic;html=1;rounded=0;entryX=0.133;entryY=0.861;entryDx=0;entryDy=0;entryPerimeter=0;" edge="1" parent="1" target="3X6H7SgbxtwTs5WAB30O-3">
          <mxGeometry width="50" height="50" relative="1" as="geometry">
            <mxPoint x="210" y="370" as="sourcePoint" />
            <mxPoint x="260" y="320" as="targetPoint" />
          </mxGeometry>
        </mxCell>
        <mxCell id="3X6H7SgbxtwTs5WAB30O-6" value="" style="endArrow=none;dashed=1;html=1;dashPattern=1 3;strokeWidth=2;rounded=0;entryX=0.185;entryY=-0.027;entryDx=0;entryDy=0;entryPerimeter=0;" edge="1" parent="1">
          <mxGeometry width="50" height="50" relative="1" as="geometry">
            <mxPoint x="303" y="330" as="sourcePoint" />
            <mxPoint x="301.8499999999999" y="268.38" as="targetPoint" />
          </mxGeometry>
        </mxCell>
        <mxCell id="3X6H7SgbxtwTs5WAB30O-7" value="&lt;h1&gt;&lt;span style=&quot;background-color: initial;&quot;&gt;Icon Input: as&amp;nbsp;&lt;/span&gt;&lt;br&gt;&lt;/h1&gt;&lt;a href=&quot;https://design.pega.com/develop/icon/&quot;&gt;Icon | Pega Constellation design system&lt;/a&gt;" style="text;html=1;strokeColor=none;fillColor=none;spacing=5;spacingTop=-20;whiteSpace=wrap;overflow=hidden;rounded=0;" vertex="1" parent="1">
          <mxGeometry x="160" y="360" width="190" height="120" as="geometry" />
        </mxCell>
        <mxCell id="3X6H7SgbxtwTs5WAB30O-8" value="&lt;h1&gt;&lt;span style=&quot;background-color: initial;&quot;&gt;Primary: Button as&lt;/span&gt;&lt;/h1&gt;&lt;a href=&quot;https://design.pega.com/develop/button/&quot;&gt;Button | Pega Constellation design system&lt;/a&gt;" style="text;html=1;strokeColor=none;fillColor=none;spacing=5;spacingTop=-20;whiteSpace=wrap;overflow=hidden;rounded=0;" vertex="1" parent="1">
          <mxGeometry x="460" y="370" width="190" height="120" as="geometry" />
        </mxCell>
        <mxCell id="3X6H7SgbxtwTs5WAB30O-9" value="" style="endArrow=classic;html=1;rounded=0;entryX=1;entryY=1;entryDx=0;entryDy=0;" edge="1" parent="1" source="3X6H7SgbxtwTs5WAB30O-8" target="3X6H7SgbxtwTs5WAB30O-1">
          <mxGeometry width="50" height="50" relative="1" as="geometry">
            <mxPoint x="530" y="350" as="sourcePoint" />
            <mxPoint x="580" y="300" as="targetPoint" />
          </mxGeometry>
        </mxCell>
      </root>
    </mxGraphModel>
  </diagram>
</mxfile>
